<?xml version="1.0" encoding="utf-8"?>
<!-- Generator: Adobe Illustrator 23.0.0, SVG Export Plug-In . SVG Version: 6.00 Build 0)  -->
<svg version="1.1" id="Layer_1" xmlns="http://www.w3.org/2000/svg" xmlns:xlink="http://www.w3.org/1999/xlink" x="0px" y="0px"
	 viewBox="0 0 50 50" style="enable-background:new 0 0 50 50;" xml:space="preserve">
<style type="text/css">
	.st0{fill-rule:evenodd;clip-rule:evenodd;fill:#461269;}
</style>
<g>
	<path class="st0" d="M25.4,2c12.4,0,22.5,10.1,22.5,22.5C47.9,36.9,37.8,47,25.4,47C13,47,2.9,36.9,2.9,24.5C2.9,12.1,13,2,25.4,2
		 M25.4,44C36.2,44,45,35.3,45,24.5S36.2,5,25.4,5C14.6,5,5.9,13.7,5.9,24.5S14.6,44,25.4,44"/>
	<path class="st0" d="M16.2,22.2h7.5v-7.5c0-0.8,0.7-1.5,1.5-1.5s1.5,0.7,1.5,1.5v7.5h7.5c0.8,0,1.5,0.7,1.5,1.5s-0.7,1.5-1.5,1.5
		h-7.5v7.5c0,0.8-0.7,1.5-1.5,1.5s-1.5-0.7-1.5-1.5v-7.5h-7.5c-0.8,0-1.5-0.7-1.5-1.5S15.4,22.2,16.2,22.2"/>
</g>
</svg>
