<?xml version="1.0" encoding="utf-8"?>
<!-- Generator: Adobe Illustrator 19.0.0, SVG Export Plug-In . SVG Version: 6.00 Build 0)  -->
<svg version="1.1" id="Capa_1" xmlns="http://www.w3.org/2000/svg" xmlns:xlink="http://www.w3.org/1999/xlink" x="0px" y="0px"
	 viewBox="-223 25 512 512" style="enable-background:new -223 25 512 512;" xml:space="preserve">
<style type="text/css">
	.st0{fill:#FFFFFF;}
</style>
<path class="st0" d="M1.1,329l83.3-48L1.1,233V329z"/>
<path class="st0" d="M33,25c-141.4,0-256,114.6-256,256s114.6,256,256,256s256-114.6,256-256S174.4,25,33,25z M193,281.3
	c0,0,0,51.9-6.6,77c-3.7,13.7-14.5,24.5-28.2,28.2C133.1,393,33,393,33,393s-99.9,0-125.2-6.9c-13.7-3.7-24.5-14.5-28.2-28.2
	C-127,333.2-127,281-127,281s0-51.9,6.6-76.9c3.7-13.7,14.8-24.8,28.2-28.5C-67.1,169,33,169,33,169s100.1,0,125.2,6.9
	c13.7,3.7,24.5,14.5,28.2,28.2C193.2,229.1,193,281.3,193,281.3z"/>
</svg>
