<svg xmlns="http://www.w3.org/2000/svg" viewBox="0 0 832.98 223.8"><defs><style>.cls-1{fill:#fff;}</style></defs><title>logo svg</title><g id="Capa_2" data-name="Capa 2"><g id="Capa_1-2" data-name="Capa 1"><path class="cls-1" d="M213.36,154H193.85L248.29,28.45h16L318.17,154H298.3l-12.77-30.86H226Zm18.79-46.29h47L255.74,48.86Z"/><path class="cls-1" d="M375.27,91.24a21.89,21.89,0,0,0-8-7.54,22.93,22.93,0,0,0-11.53-2.92,26.61,26.61,0,0,0-5.67.62A16.71,16.71,0,0,0,345,83.34a10.7,10.7,0,0,0-3.54,3.37,9.08,9.08,0,0,0-1.33,5.06,8.39,8.39,0,0,0,4.78,7.89q4.8,2.58,14.37,4.7a87,87,0,0,1,11.17,3.38,34.42,34.42,0,0,1,8.95,4.87,21,21,0,0,1,5.95,7,20.47,20.47,0,0,1,2.12,9.58,25.75,25.75,0,0,1-2.83,12.59,24.68,24.68,0,0,1-7.54,8.43,31.09,31.09,0,0,1-10.73,4.7A54.34,54.34,0,0,1,354,156.32a49.16,49.16,0,0,1-18.71-3.72,36.64,36.64,0,0,1-15.17-11.35L332,131.14a27.11,27.11,0,0,0,9.31,8.34,26,26,0,0,0,13,3.37,29.68,29.68,0,0,0,6.12-.62,17.56,17.56,0,0,0,5.32-2,10.34,10.34,0,0,0,5.24-9.58q0-5.87-5.6-8.69T349,116.59c-2.85-.7-5.72-1.56-8.61-2.56a28.77,28.77,0,0,1-7.89-4.17,21,21,0,0,1-5.77-6.64,20.18,20.18,0,0,1-2.21-9.85,23.2,23.2,0,0,1,2.75-11.62,23.77,23.77,0,0,1,7.18-8,31.62,31.62,0,0,1,10.1-4.61,45.69,45.69,0,0,1,11.71-1.51,44.62,44.62,0,0,1,17.47,3.55,29,29,0,0,1,13,10.29Z"/><path class="cls-1" d="M483.09,111.81a45.32,45.32,0,0,1-3.46,17.91,42.47,42.47,0,0,1-9.58,14.1,43.3,43.3,0,0,1-14.45,9.23,50.68,50.68,0,0,1-35.82,0,42.32,42.32,0,0,1-14.36-9.23,43,43,0,0,1-9.49-14.1,45.32,45.32,0,0,1-3.46-17.91A44.67,44.67,0,0,1,395.93,94a42.37,42.37,0,0,1,9.49-13.93,43,43,0,0,1,14.36-9.13,50.54,50.54,0,0,1,35.82,0,44,44,0,0,1,14.45,9.13A41.86,41.86,0,0,1,479.63,94a44.67,44.67,0,0,1,3.46,17.82m-17.38.09a35.47,35.47,0,0,0-1.86-11.49,29.42,29.42,0,0,0-5.43-9.64,26.16,26.16,0,0,0-8.81-6.63,30.32,30.32,0,0,0-24,0,26.12,26.12,0,0,0-8.8,6.63,29.24,29.24,0,0,0-5.43,9.64,36.23,36.23,0,0,0,0,23,30.19,30.19,0,0,0,5.43,9.73,25.35,25.35,0,0,0,8.8,6.72,30.43,30.43,0,0,0,24,0,25.39,25.39,0,0,0,8.81-6.72,30.38,30.38,0,0,0,5.43-9.73,35.52,35.52,0,0,0,1.86-11.49"/><path class="cls-1" d="M554.38,91.24a20.42,20.42,0,0,0-8-6.83,24.42,24.42,0,0,0-11.35-2.75,26.09,26.09,0,0,0-11.62,2.48,27,27,0,0,0-8.6,6.65,29.42,29.42,0,0,0-5.4,9.67,36.48,36.48,0,0,0,0,23.06,29.32,29.32,0,0,0,5.4,9.67,26,26,0,0,0,20.4,9.12,26.65,26.65,0,0,0,11.61-2.48,23.7,23.7,0,0,0,8.6-6.74l11.18,10.11a36.22,36.22,0,0,1-13.3,9.67,45.21,45.21,0,0,1-18.09,3.45,49.39,49.39,0,0,1-18-3.19,42.48,42.48,0,0,1-14.28-9,41.11,41.11,0,0,1-9.49-13.92A46.44,46.44,0,0,1,490,112a46.93,46.93,0,0,1,3.37-18.09,41.21,41.21,0,0,1,9.41-14,41.93,41.93,0,0,1,14.27-9,48.92,48.92,0,0,1,17.82-3.19,46.92,46.92,0,0,1,17.65,3.55,32.34,32.34,0,0,1,13.92,10.29Z"/><path class="cls-1" d="M628.33,99.57q0-9.39-5.67-13.91t-15.08-4.53a33,33,0,0,0-13.39,2.75,34.14,34.14,0,0,0-10.55,7l-8.86-10.63A44.67,44.67,0,0,1,589.93,71a54.37,54.37,0,0,1,19.25-3.37,43.28,43.28,0,0,1,15.69,2.58,29.42,29.42,0,0,1,10.9,7,28.8,28.8,0,0,1,6.39,10.46,38.62,38.62,0,0,1,2.13,13v36.7c0,2.85.09,5.83.26,9a47.61,47.61,0,0,0,1,7.72H630.46A52.27,52.27,0,0,1,629,142h-.54a32.22,32.22,0,0,1-11.61,10.46,34.77,34.77,0,0,1-16.58,3.73,43.85,43.85,0,0,1-10.38-1.33,30.31,30.31,0,0,1-9.84-4.35,24.6,24.6,0,0,1-7.36-8,23.82,23.82,0,0,1-2.92-12.24q0-9.57,5.14-15.16a32.66,32.66,0,0,1,13.48-8.52,75.93,75.93,0,0,1,18.8-3.8q10.46-.88,21.1-.89Zm-4.08,14.37q-6.21,0-12.85.53a59.22,59.22,0,0,0-12.06,2.12,22.83,22.83,0,0,0-9,4.8,10.87,10.87,0,0,0-3.55,8.51,11.67,11.67,0,0,0,1.51,6.2,12.47,12.47,0,0,0,4,4.09,15.94,15.94,0,0,0,5.5,2.21A30.28,30.28,0,0,0,604,143q11.7,0,18-7t6.3-17.65v-4.43Z"/><path class="cls-1" d="M639.86,162.88a28.31,28.31,0,0,0,6.74.88,11.36,11.36,0,0,0,6-1.42,9.64,9.64,0,0,0,3.54-3.82,17.2,17.2,0,0,0,1.68-5.66,51.74,51.74,0,0,0,.45-7V70H675v76.43a60.5,60.5,0,0,1-1.15,12.06,27.54,27.54,0,0,1-4.17,10.1,20.74,20.74,0,0,1-8.34,7c-3.54,1.71-8.1,2.56-13.65,2.56a36.91,36.91,0,0,1-5-.35c-1.78-.23-3.31-.47-4.62-.71ZM677.81,39.63a9.91,9.91,0,0,1-3.29,7.63,11.22,11.22,0,0,1-7.89,3,11,11,0,0,1-7.89-3.11,10,10,0,0,1-3.28-7.53,10.21,10.21,0,0,1,3.28-7.71,11.59,11.59,0,0,1,15.78,0,10.18,10.18,0,0,1,3.29,7.71"/><path class="cls-1" d="M742.18,99.57q0-9.39-5.67-13.91t-15.08-4.53A33,33,0,0,0,708,83.88a34,34,0,0,0-10.54,7l-8.88-10.63A44.77,44.77,0,0,1,703.79,71,54.26,54.26,0,0,1,723,67.65a43.39,43.39,0,0,1,15.71,2.58,29.59,29.59,0,0,1,10.9,7A28.8,28.8,0,0,1,756,87.69a38.62,38.62,0,0,1,2.12,13v36.7c0,2.85.09,5.83.27,9a46.65,46.65,0,0,0,1,7.72H744.31A52.27,52.27,0,0,1,742.89,142h-.53a32.39,32.39,0,0,1-11.61,10.46,34.81,34.81,0,0,1-16.59,3.73,43.71,43.71,0,0,1-10.37-1.33,30.27,30.27,0,0,1-9.85-4.35,24.46,24.46,0,0,1-7.35-8,23.63,23.63,0,0,1-2.93-12.24q0-9.57,5.15-15.16a32.62,32.62,0,0,1,13.47-8.52,76.12,76.12,0,0,1,18.8-3.8q10.47-.88,21.1-.89Zm-4.08,14.37q-6.21,0-12.86.53a59.36,59.36,0,0,0-12,2.12,22.9,22.9,0,0,0-9,4.8,10.87,10.87,0,0,0-3.55,8.51,11.77,11.77,0,0,0,1.51,6.2,12.57,12.57,0,0,0,4,4.09,16.1,16.1,0,0,0,5.5,2.21,30.28,30.28,0,0,0,6.21.62q11.7,0,18-7t6.29-17.65v-4.43Z"/><path class="cls-1" d="M820.74,91.24a21.81,21.81,0,0,0-8-7.54,22.84,22.84,0,0,0-11.52-2.92,26.7,26.7,0,0,0-5.68.62,16.65,16.65,0,0,0-5,1.94A10.73,10.73,0,0,0,787,86.71a9.08,9.08,0,0,0-1.33,5.06,8.4,8.4,0,0,0,4.79,7.89q4.79,2.58,14.37,4.7A86.49,86.49,0,0,1,816,107.74a34.58,34.58,0,0,1,8.95,4.87,21.13,21.13,0,0,1,5.94,7,20.47,20.47,0,0,1,2.13,9.58,25.86,25.86,0,0,1-2.83,12.59,24.78,24.78,0,0,1-7.54,8.43,31.18,31.18,0,0,1-10.73,4.7,54.37,54.37,0,0,1-12.42,1.41,49.11,49.11,0,0,1-18.7-3.72,36.64,36.64,0,0,1-15.17-11.35l11.88-10.11a27.21,27.21,0,0,0,9.31,8.34,26,26,0,0,0,13,3.37,29.75,29.75,0,0,0,6.12-.62,17.56,17.56,0,0,0,5.32-2,10.28,10.28,0,0,0,5.22-9.58c0-3.91-1.85-6.8-5.58-8.69s-9.19-3.66-16.4-5.33c-2.84-.7-5.71-1.56-8.6-2.56a28.62,28.62,0,0,1-7.89-4.17,20.76,20.76,0,0,1-5.77-6.64A20.07,20.07,0,0,1,770,93.37a23.31,23.31,0,0,1,2.75-11.62,24,24,0,0,1,7.18-8,31.73,31.73,0,0,1,10.12-4.61,45.56,45.56,0,0,1,11.7-1.51,44.69,44.69,0,0,1,17.47,3.55,29,29,0,0,1,13,10.29Z"/><path class="cls-1" d="M92.33,141.28H26.7v-41.1L49.82,82.51h88.84s1.1,58.77-46.33,58.77"/><path class="cls-1" d="M15.88,50,59.25,6.6C68-2.15,77.75-2.19,86.37,6.42L124,44,26.69,141.29S-25.33,91.18,15.88,50"/><path class="cls-1" d="M149.52,173.83,106.14,217.2c-8.74,8.74-18.5,8.8-27.1.18l-37.6-37.6,97.27-97.27s52,50.1,10.81,91.32"/><path class="cls-1" d="M213.36,154H193.85L248.29,28.45h16L318.17,154H298.3l-12.77-30.86H226Zm18.79-46.29h47L255.74,48.86Z"/><path class="cls-1" d="M375.27,91.24a21.89,21.89,0,0,0-8-7.54,22.93,22.93,0,0,0-11.53-2.92,26.61,26.61,0,0,0-5.67.62A16.71,16.71,0,0,0,345,83.34a10.7,10.7,0,0,0-3.54,3.37,9.08,9.08,0,0,0-1.33,5.06,8.39,8.39,0,0,0,4.78,7.89q4.8,2.58,14.37,4.7a87,87,0,0,1,11.17,3.38,34.42,34.42,0,0,1,8.95,4.87,21,21,0,0,1,5.95,7,20.47,20.47,0,0,1,2.12,9.58,25.75,25.75,0,0,1-2.83,12.59,24.68,24.68,0,0,1-7.54,8.43,31.09,31.09,0,0,1-10.73,4.7A54.34,54.34,0,0,1,354,156.32a49.16,49.16,0,0,1-18.71-3.72,36.64,36.64,0,0,1-15.17-11.35L332,131.14a27.11,27.11,0,0,0,9.31,8.34,26,26,0,0,0,13,3.37,29.68,29.68,0,0,0,6.12-.62,17.56,17.56,0,0,0,5.32-2,10.34,10.34,0,0,0,5.24-9.58q0-5.87-5.6-8.69T349,116.59c-2.85-.7-5.72-1.56-8.61-2.56a28.77,28.77,0,0,1-7.89-4.17,21,21,0,0,1-5.77-6.64,20.18,20.18,0,0,1-2.21-9.85,23.2,23.2,0,0,1,2.75-11.62,23.77,23.77,0,0,1,7.18-8,31.62,31.62,0,0,1,10.1-4.61,45.69,45.69,0,0,1,11.71-1.51,44.62,44.62,0,0,1,17.47,3.55,29,29,0,0,1,13,10.29Z"/><path class="cls-1" d="M483.09,111.81a45.32,45.32,0,0,1-3.46,17.91,42.47,42.47,0,0,1-9.58,14.1,43.3,43.3,0,0,1-14.45,9.23,50.68,50.68,0,0,1-35.82,0,42.32,42.32,0,0,1-14.36-9.23,43,43,0,0,1-9.49-14.1,45.32,45.32,0,0,1-3.46-17.91A44.67,44.67,0,0,1,395.93,94a42.37,42.37,0,0,1,9.49-13.93,43,43,0,0,1,14.36-9.13,50.54,50.54,0,0,1,35.82,0,44,44,0,0,1,14.45,9.13A41.86,41.86,0,0,1,479.63,94a44.67,44.67,0,0,1,3.46,17.82m-17.38.09a35.47,35.47,0,0,0-1.86-11.49,29.42,29.42,0,0,0-5.43-9.64,26.16,26.16,0,0,0-8.81-6.63,30.32,30.32,0,0,0-24,0,26.12,26.12,0,0,0-8.8,6.63,29.24,29.24,0,0,0-5.43,9.64,36.23,36.23,0,0,0,0,23,30.19,30.19,0,0,0,5.43,9.73,25.35,25.35,0,0,0,8.8,6.72,30.43,30.43,0,0,0,24,0,25.39,25.39,0,0,0,8.81-6.72,30.38,30.38,0,0,0,5.43-9.73,35.52,35.52,0,0,0,1.86-11.49"/><path class="cls-1" d="M554.38,91.24a20.42,20.42,0,0,0-8-6.83,24.42,24.42,0,0,0-11.35-2.75,26.09,26.09,0,0,0-11.62,2.48,27,27,0,0,0-8.6,6.65,29.42,29.42,0,0,0-5.4,9.67,36.48,36.48,0,0,0,0,23.06,29.32,29.32,0,0,0,5.4,9.67,26,26,0,0,0,20.4,9.12,26.65,26.65,0,0,0,11.61-2.48,23.7,23.7,0,0,0,8.6-6.74l11.18,10.11a36.22,36.22,0,0,1-13.3,9.67,45.21,45.21,0,0,1-18.09,3.45,49.39,49.39,0,0,1-18-3.19,42.48,42.48,0,0,1-14.28-9,41.11,41.11,0,0,1-9.49-13.92A46.44,46.44,0,0,1,490,112a46.93,46.93,0,0,1,3.37-18.09,41.21,41.21,0,0,1,9.41-14,41.93,41.93,0,0,1,14.27-9,48.92,48.92,0,0,1,17.82-3.19,46.92,46.92,0,0,1,17.65,3.55,32.34,32.34,0,0,1,13.92,10.29Z"/><path class="cls-1" d="M628.33,99.57q0-9.39-5.67-13.91t-15.08-4.53a33,33,0,0,0-13.39,2.75,34.14,34.14,0,0,0-10.55,7l-8.86-10.63A44.67,44.67,0,0,1,589.93,71a54.37,54.37,0,0,1,19.25-3.37,43.28,43.28,0,0,1,15.69,2.58,29.42,29.42,0,0,1,10.9,7,28.8,28.8,0,0,1,6.39,10.46,38.62,38.62,0,0,1,2.13,13v36.7c0,2.85.09,5.83.26,9a47.61,47.61,0,0,0,1,7.72H630.46A52.27,52.27,0,0,1,629,142h-.54a32.22,32.22,0,0,1-11.61,10.46,34.77,34.77,0,0,1-16.58,3.73,43.85,43.85,0,0,1-10.38-1.33,30.31,30.31,0,0,1-9.84-4.35,24.6,24.6,0,0,1-7.36-8,23.82,23.82,0,0,1-2.92-12.24q0-9.57,5.14-15.16a32.66,32.66,0,0,1,13.48-8.52,75.93,75.93,0,0,1,18.8-3.8q10.46-.88,21.1-.89Zm-4.08,14.37q-6.21,0-12.85.53a59.22,59.22,0,0,0-12.06,2.12,22.83,22.83,0,0,0-9,4.8,10.87,10.87,0,0,0-3.55,8.51,11.67,11.67,0,0,0,1.51,6.2,12.47,12.47,0,0,0,4,4.09,15.94,15.94,0,0,0,5.5,2.21A30.28,30.28,0,0,0,604,143q11.7,0,18-7t6.3-17.65v-4.43Z"/><path class="cls-1" d="M639.86,162.88a28.31,28.31,0,0,0,6.74.88,11.36,11.36,0,0,0,6-1.42,9.64,9.64,0,0,0,3.54-3.82,17.2,17.2,0,0,0,1.68-5.66,51.74,51.74,0,0,0,.45-7V70H675v76.43a60.5,60.5,0,0,1-1.15,12.06,27.54,27.54,0,0,1-4.17,10.1,20.74,20.74,0,0,1-8.34,7c-3.54,1.71-8.1,2.56-13.65,2.56a36.91,36.91,0,0,1-5-.35c-1.78-.23-3.31-.47-4.62-.71ZM677.81,39.63a9.91,9.91,0,0,1-3.29,7.63,11.22,11.22,0,0,1-7.89,3,11,11,0,0,1-7.89-3.11,10,10,0,0,1-3.28-7.53,10.21,10.21,0,0,1,3.28-7.71,11.59,11.59,0,0,1,15.78,0,10.18,10.18,0,0,1,3.29,7.71"/><path class="cls-1" d="M742.18,99.57q0-9.39-5.67-13.91t-15.08-4.53A33,33,0,0,0,708,83.88a34,34,0,0,0-10.54,7l-8.88-10.63A44.77,44.77,0,0,1,703.79,71,54.26,54.26,0,0,1,723,67.65a43.39,43.39,0,0,1,15.71,2.58,29.59,29.59,0,0,1,10.9,7A28.8,28.8,0,0,1,756,87.69a38.62,38.62,0,0,1,2.12,13v36.7c0,2.85.09,5.83.27,9a46.65,46.65,0,0,0,1,7.72H744.31A52.27,52.27,0,0,1,742.89,142h-.53a32.39,32.39,0,0,1-11.61,10.46,34.81,34.81,0,0,1-16.59,3.73,43.71,43.71,0,0,1-10.37-1.33,30.27,30.27,0,0,1-9.85-4.35,24.46,24.46,0,0,1-7.35-8,23.63,23.63,0,0,1-2.93-12.24q0-9.57,5.15-15.16a32.62,32.62,0,0,1,13.47-8.52,76.12,76.12,0,0,1,18.8-3.8q10.47-.88,21.1-.89Zm-4.08,14.37q-6.21,0-12.86.53a59.36,59.36,0,0,0-12,2.12,22.9,22.9,0,0,0-9,4.8,10.87,10.87,0,0,0-3.55,8.51,11.77,11.77,0,0,0,1.51,6.2,12.57,12.57,0,0,0,4,4.09,16.1,16.1,0,0,0,5.5,2.21,30.28,30.28,0,0,0,6.21.62q11.7,0,18-7t6.29-17.65v-4.43Z"/><path class="cls-1" d="M820.74,91.24a21.81,21.81,0,0,0-8-7.54,22.84,22.84,0,0,0-11.52-2.92,26.7,26.7,0,0,0-5.68.62,16.65,16.65,0,0,0-5,1.94A10.73,10.73,0,0,0,787,86.71a9.08,9.08,0,0,0-1.33,5.06,8.4,8.4,0,0,0,4.79,7.89q4.79,2.58,14.37,4.7A86.49,86.49,0,0,1,816,107.74a34.58,34.58,0,0,1,8.95,4.87,21.13,21.13,0,0,1,5.94,7,20.47,20.47,0,0,1,2.13,9.58,25.86,25.86,0,0,1-2.83,12.59,24.78,24.78,0,0,1-7.54,8.43,31.18,31.18,0,0,1-10.73,4.7,54.37,54.37,0,0,1-12.42,1.41,49.11,49.11,0,0,1-18.7-3.72,36.64,36.64,0,0,1-15.17-11.35l11.88-10.11a27.21,27.21,0,0,0,9.31,8.34,26,26,0,0,0,13,3.37,29.75,29.75,0,0,0,6.12-.62,17.56,17.56,0,0,0,5.32-2,10.28,10.28,0,0,0,5.22-9.58c0-3.91-1.85-6.8-5.58-8.69s-9.19-3.66-16.4-5.33c-2.84-.7-5.71-1.56-8.6-2.56a28.62,28.62,0,0,1-7.89-4.17,20.76,20.76,0,0,1-5.77-6.64A20.07,20.07,0,0,1,770,93.37a23.31,23.31,0,0,1,2.75-11.62,24,24,0,0,1,7.18-8,31.73,31.73,0,0,1,10.12-4.61,45.56,45.56,0,0,1,11.7-1.51,44.69,44.69,0,0,1,17.47,3.55,29,29,0,0,1,13,10.29Z"/><path class="cls-1" d="M92.33,141.28H26.7v-41.1L49.82,82.51h88.84s1.1,58.77-46.33,58.77"/><path class="cls-1" d="M15.88,50,59.25,6.6C68-2.15,77.75-2.19,86.37,6.42L124,44,26.69,141.29S-25.33,91.18,15.88,50"/><path class="cls-1" d="M149.52,173.83,106.14,217.2c-8.74,8.74-18.5,8.8-27.1.18l-37.6-37.6,97.27-97.27s52,50.1,10.81,91.32"/></g></g></svg>